# xmcd
#
# Track frame offsets:
#	150
#	5979
#	22902
#	41570
#	59343
#	80105
#	101943
#	118208
#	138243
#	158982
#	173734
#	188123
#	200132
#	211909
#
# Disc length: 2905 seconds
#
# Revision: 1
# Processed by: cddbd v1.5PL3 Copyright (c) Steve Scherf et al.
# Submitted via: CDex 1.50Beta5
#
DISCID=cc0b570e
DTITLE=Vatious Artist - A Music Box For Kinenbi
DYEAR=1900
DGENRE=Easy Listening
TTITLE0=Prologue
TTITLE1=Alone Again
TTITLE2=We're All Alone
TTITLE3=Close To You
TTITLE4=Get Back In Love
TTITLE5=Happy Birthday To Me
TTITLE6=Imagine
TTITLE7=Yaya
TTITLE8=Sotsugyo Shasin
TTITLE9=Antonio's Song
TTITLE10=Wakare No Kyoku
TTITLE11=Flower Wedding Bell
TTITLE12=What A Wonderful World
TTITLE13=Epilogue
EXTD=
EXTT0=
EXTT1=
EXTT2=
EXTT3=
EXTT4=
EXTT5=
EXTT6=
EXTT7=
EXTT8=
EXTT9=
EXTT10=
EXTT11=
EXTT12=
EXTT13=
PLAYORDER=
